<?xml version="1.0" encoding="UTF-8"?>
<svg width="200px" height="67px" viewBox="0 0 200 67" xmlns="http://www.w3.org/2000/svg" xmlns:xlink="http://www.w3.org/1999/xlink" version="1.1">
 <!-- Generated by Pixelmator Pro 2.0.8 -->
 <path id="Pfad" d="M35.417 4.188 C18.37 4.759 4.928 18.961 5.213 36.1 5.497 53.239 19.403 66.983 36.458 66.983 53.514 66.983 67.42 53.239 67.704 36.1 67.988 18.961 54.546 4.759 37.5 4.188 Z M79.167 4.188 C62.12 4.759 48.678 18.961 48.963 36.1 49.247 53.239 63.153 66.983 80.208 66.983 97.264 66.983 111.17 53.239 111.454 36.1 111.738 18.961 98.296 4.759 81.25 4.188 Z M122.917 4.188 C105.87 4.759 92.428 18.961 92.713 36.1 92.997 53.239 106.903 66.983 123.958 66.983 141.014 66.983 154.92 53.239 155.204 36.1 155.488 18.961 142.046 4.759 125 4.188 Z M166.667 4.188 C149.62 4.759 136.178 18.961 136.463 36.1 136.747 53.239 150.653 66.983 167.708 66.983 184.764 66.983 198.67 53.239 198.954 36.1 199.238 18.961 185.796 4.759 168.75 4.188 Z" fill="none" stroke="#000000" stroke-width="7.31" stroke-opacity="1" stroke-linejoin="round" stroke-linecap="round"/>
</svg>
