<?xml version="1.0" encoding="UTF-8"?>
<svg width="200px" height="200px" viewBox="0 0 200 200" xmlns="http://www.w3.org/2000/svg" xmlns:xlink="http://www.w3.org/1999/xlink" version="1.1">
 <!-- Generated by Pixelmator Pro 2.0.8 -->
 <g id="BMW-logo-grey-fallback-53px">
  <g id="BMW-logo">
   <g id="BMW-logo-fallback">
    <g id="BMW_Grey-Colour_RGB-2">
     <g id="BMW_Grey-Colour_RGB">
      <g id="g3375">
       <g id="g3381">
        <g id="g3355">
         <path id="path21" d="M159.009 99.843 C159.009 132.541 132.541 159.009 99.843 159.009 L99.843 99.843 Z M99.843 40.677 L99.843 99.843 40.677 99.843 C40.677 67.145 67.145 40.677 99.843 40.677 Z" fill="#0166b1" fill-opacity="1" stroke="none"/>
        </g>
        <path id="path21-3" d="M99.843 40.677 C132.541 40.677 159.009 67.145 159.009 99.843 L99.843 99.843 Z M40.677 99.843 L99.843 99.843 99.843 159.009 C67.145 159.009 40.677 132.541 40.677 99.843 Z" fill="#ffffff" fill-opacity="1" stroke="none"/>
       </g>
      </g>
      <g id="g3393">
       <path id="path14" d="M99.843 40.677 L99.843 43.921 C130.676 43.921 155.765 69.005 155.765 99.843 L159.009 99.843 C159.009 67.168 132.518 40.677 99.843 40.677 Z M99.843 155.765 C69.01 155.765 43.921 130.682 43.921 99.843 L40.677 99.843 C40.677 132.518 67.168 159.009 99.843 159.009 M99.843 0 C44.703 0 0 44.703 0 99.843 0 154.983 44.703 199.686 99.843 199.686 154.983 199.686 199.686 154.983 199.686 99.843 199.686 44.703 154.983 0 99.843 0 Z M193.193 99.843 C193.193 151.396 151.402 193.193 99.843 193.193 48.284 193.193 6.493 151.396 6.493 99.843 6.493 48.29 48.29 6.493 99.843 6.493 151.396 6.493 193.193 48.29 193.193 99.843 Z" fill="#6f6f6f" fill-opacity="1" stroke="none"/>
      </g>
      <g id="g3386">
       <g id="Group">
        <path id="B_x5F_22d_61_" d="M57.176 51.677 C60.366 48.339 62.173 44.483 58.982 40.802 57.246 38.805 54.331 38.368 51.915 39.352 L51.674 39.445 51.751 39.236 C52.108 38.286 52.337 35.257 49.739 33.166 48.472 32.147 46.883 31.769 45.276 31.932 42.279 32.234 39.974 34.267 33.698 41.216 31.804 43.313 29.047 46.621 27.394 48.764 27.394 48.764 44.631 65.003 44.631 65.003 50.343 58.724 52.671 56.389 57.176 51.677 Z M34.684 47.704 C38.156 43.487 41.845 39.661 43.516 38.146 44.044 37.669 44.619 37.191 45.317 37.005 46.449 36.696 47.616 37.494 47.88 38.647 48.144 39.806 47.411 40.907 46.595 41.816 44.76 43.872 38.027 50.867 38.027 50.867 38.027 50.867 34.684 47.704 34.684 47.704 Z M41.434 54.065 C41.434 54.065 47.991 47.18 50.132 44.979 50.982 44.105 51.528 43.575 52.114 43.289 52.871 42.922 53.698 42.847 54.437 43.336 55.164 43.819 55.498 44.652 55.316 45.479 55.099 46.464 54.29 47.402 53.621 48.118 52.718 49.079 44.941 57.344 44.93 57.356 Z M101.814 32.31 L107.333 20.032 107.684 18.943 107.585 20.079 108.165 36.486 C110.101 36.667 112.101 36.935 114.071 37.261 L113.174 12.961 C110.417 12.658 107.673 12.443 104.928 12.326 L99.491 25.729 99.298 26.724 99.104 25.729 93.673 12.326 C90.928 12.443 88.184 12.658 85.427 12.961 L84.53 37.261 C86.5 36.935 88.5 36.673 90.436 36.486 L91.016 20.079 90.917 18.943 91.269 20.032 96.787 32.31 101.814 32.31 Z M147.648 57.711 C149.003 59.155 150.956 61.485 152.053 62.901 L172.251 50.168 C171.243 48.858 169.636 46.866 168.433 45.462 L155.642 53.861 154.768 54.606 155.419 53.663 161.067 42.468 157.073 38.502 145.795 44.111 144.845 44.757 145.601 43.889 154.064 31.192 C152.575 29.934 151.144 28.781 149.32 27.383 L136.499 47.425 C138.123 48.665 140.264 50.489 141.631 51.729 L153.701 45.509 154.475 44.944 153.906 45.712 Z" fill="#6f6f6f" fill-opacity="1" stroke="none"/>
       </g>
      </g>
     </g>
    </g>
   </g>
  </g>
 </g>
</svg>
