<?xml version="1.0" encoding="UTF-8"?>
<svg width="200px" height="175px" viewBox="0 0 200 175" xmlns="http://www.w3.org/2000/svg" xmlns:xlink="http://www.w3.org/1999/xlink" version="1.1">
 <!-- Generated by Pixelmator Pro 2.0.8 -->
 <g id="g6185">
  <g id="g6187">
   <g id="g6193">
    <path id="path6195" d="M9.777 2.58 L5.788 3.033 4.143 3.316 C1.466 4.036 -0.298 6.662 0.042 9.43 L0.777 13.631 C2.076 20.784 3.512 27.981 5.048 35.021 6.551 41.91 8.236 49.004 10.045 56.106 L13.418 68.814 18.496 86.384 24.001 103.879 C26.075 110.207 32.536 128.673 33.743 131.709 39.064 145.155 44.711 155.758 54.951 163.83 65.391 172.051 76.672 174.817 99.667 174.817 122.641 174.817 133.912 172.051 144.346 163.83 154.592 155.758 160.236 145.155 165.559 131.709 166.756 128.689 173.215 110.222 175.299 103.879 L180.809 86.384 185.884 68.814 189.253 56.106 C191.054 49.055 192.731 41.963 194.252 35.021 195.798 27.95 197.237 20.751 198.526 13.631 L199.263 9.423 199.304 8.748 C199.304 6.244 197.615 3.975 195.163 3.316 L193.504 3.033 189.531 2.58 C176.001 1.389 133.8 -0 99.664 -0 65.513 -0 23.296 1.389 9.777 2.58 M56.503 161.873 C46.699 154.15 41.243 143.862 36.071 130.801 34.91 127.867 28.387 109.233 26.384 103.113 L20.893 85.669 15.827 68.152 12.469 55.49 C10.665 48.414 8.994 41.35 7.49 34.495 5.959 27.482 4.528 20.311 3.237 13.189 L2.517 9.105 C2.331 7.588 3.311 6.122 4.791 5.725 L6.148 5.499 9.994 5.064 C23.47 3.875 65.575 2.491 99.664 2.491 133.738 2.491 175.835 3.875 189.306 5.064 L193.149 5.501 194.509 5.725 C195.995 6.122 196.969 7.588 196.781 9.133 L196.066 13.189 C194.78 20.281 193.351 27.449 191.807 34.495 190.299 41.403 188.622 48.47 186.831 55.49 L183.473 68.152 178.413 85.669 172.919 103.113 C170.908 109.25 164.391 127.882 163.232 130.801 158.054 143.862 152.601 154.142 142.795 161.873 133.988 168.81 124.904 172.334 99.667 172.334 74.544 172.334 65.118 168.652 56.503 161.873 M195.158 3.316 L195.102 3.303 Z M195.163 3.316 L195.158 3.316 Z" fill="#484848" fill-opacity="1" stroke="none"/>
   </g>
  </g>
 </g>
 <g id="g6197">
  <g id="g6199">
   <g id="g6205">
    <g id="g6207">
     <defs>
      <linearGradient id="linear-gradient" gradientUnits="userSpaceOnUse" x1="-2755.95" y1="1947.292" x2="-2753.398" y2="1947.292">
       <stop offset="0" stop-color="#ffffff" stop-opacity="1"/>
       <stop offset="0.653" stop-color="#858688" stop-opacity="1"/>
       <stop offset="1" stop-color="#181819" stop-opacity="1"/>
      </linearGradient>
     </defs>
     <path id="path6217" d="M9.884 3.823 C8.45 3.95 7.156 4.101 5.969 4.266 5.454 4.34 4.783 4.437 4.469 4.523 2.284 5.106 1.032 7.22 1.279 9.284 1.294 9.401 1.83 12.424 2.006 13.409 3.3 20.552 4.722 27.669 6.268 34.758 7.809 41.799 9.478 48.81 11.259 55.8 12.339 60.036 13.464 64.268 14.623 68.487 15.48 71.599 18.108 80.79 19.695 86.03 21.459 91.869 23.291 97.697 25.192 103.498 27.269 109.817 33.738 128.303 34.909 131.255 40.225 144.678 45.864 155.075 55.729 162.856 65.283 170.378 75.427 173.582 99.666 173.582 123.906 173.582 134.016 170.378 143.568 162.856 153.433 155.075 159.077 144.678 164.395 131.255 165.561 128.303 172.033 109.817 174.11 103.498 176.008 97.697 177.848 91.869 179.609 86.03 181.191 80.79 183.827 71.599 184.68 68.487 185.841 64.268 186.966 60.036 188.048 55.8 189.824 48.81 191.488 41.799 193.029 34.758 194.581 27.669 196 20.552 197.293 13.409 197.477 12.424 198.008 9.401 198.021 9.284 198.273 7.22 197.015 5.106 194.833 4.523 194.519 4.437 193.851 4.34 193.33 4.266 192.151 4.101 190.847 3.95 189.421 3.823 176.261 2.663 134.544 1.246 99.664 1.246 64.776 1.246 23.036 2.663 9.884 3.823 M144.606 91.572 C143.412 95.185 136.127 112.944 134.886 115.84 132.143 122.26 129.262 128.349 124.73 132.451 121.42 135.443 116.723 138.184 105.903 138.594 103.826 138.667 101.144 138.675 99.664 138.675 98.174 138.675 95.499 138.667 93.417 138.594 82.6 138.184 77.9 135.443 74.597 132.451 70.055 128.349 67.177 122.26 64.433 115.84 63.186 112.944 55.906 95.185 54.711 91.572 69.542 92.302 86.022 92.834 99.664 92.834 113.298 92.834 129.78 92.302 144.606 91.572" fill-opacity="1" fill="url(#linear-gradient)" stroke="none"/>
    </g>
   </g>
  </g>
 </g>
 <g id="g6219">
  <g id="g6221">
   <g id="g6227">
    <g id="g6229">
     <defs>
      <linearGradient id="linear-gradient-1" gradientUnits="userSpaceOnUse" x1="-2755.95" y1="1947.292" x2="-2753.398" y2="1947.292">
       <stop offset="0" stop-color="#484848" stop-opacity="1"/>
       <stop offset="1" stop-color="#000000" stop-opacity="1"/>
      </linearGradient>
     </defs>
     <path id="path6237" d="M144.547 90.327 C127.996 91.137 112.055 91.589 99.664 91.589 87.267 91.589 71.324 91.137 54.772 90.327 L52.956 90.238 53.53 91.961 C54.75 95.669 62.014 113.382 63.285 116.328 65.955 122.583 68.965 129.046 73.758 133.377 77.019 136.329 81.9 139.41 93.374 139.835 L99.664 139.917 105.949 139.835 C117.417 139.41 122.301 136.329 125.567 133.375 130.359 129.049 133.365 122.583 136.034 116.328 137.305 113.379 144.57 95.671 145.795 91.961 L146.367 90.238 Z M142.799 92.903 C140.671 98.569 134.828 112.814 133.738 115.349 L133.738 115.354 C131.171 121.346 128.305 127.537 123.888 131.532 120.803 134.319 116.49 136.945 105.857 137.349 L99.664 137.428 93.466 137.349 C82.799 136.945 78.361 134.189 75.437 131.532 71.017 127.537 68.149 121.346 65.587 115.354 64.492 112.814 58.651 98.569 56.523 92.903 72.436 93.658 87.693 94.083 99.664 94.083 111.624 94.083 126.884 93.658 142.799 92.903 M136.034 116.328 L136.037 116.328 Z" fill-opacity="1" fill="url(#linear-gradient-1)" stroke="none"/>
    </g>
   </g>
  </g>
 </g>
 <g id="g6239">
  <g id="g6241">
   <g id="g6247">
    <g id="g6249">
     <defs>
      <linearGradient id="linear-gradient-2" gradientUnits="userSpaceOnUse" x1="-2755.95" y1="1947.292" x2="-2753.398" y2="1947.292">
       <stop offset="0" stop-color="#fdfdfd" stop-opacity="1"/>
       <stop offset="0.492" stop-color="#454647" stop-opacity="1"/>
       <stop offset="0.789" stop-color="#181819" stop-opacity="1"/>
       <stop offset="1" stop-color="#181819" stop-opacity="1"/>
      </linearGradient>
     </defs>
     <path id="path6263" d="M10.573 5.124 C11.583 10.841 13.357 17.111 15.097 23.211 15.523 24.699 15.921 26.111 16.314 27.516 18.534 35.46 20.9 43.573 23.347 51.616 28.134 67.301 33.062 83.294 39.163 99.218 42.394 107.651 45.407 115.092 48.375 121.954 51.001 128.023 54.339 135.001 59.2 140.713 64.148 146.528 69.616 150.245 76.417 152.434 82.332 154.329 89.286 155.139 99.664 155.139 110.039 155.139 116.988 154.329 122.901 152.434 129.704 150.245 135.177 146.528 140.122 140.713 144.976 135.001 148.321 128.023 150.945 121.949 153.923 115.092 156.929 107.651 160.162 99.218 166.261 83.289 171.188 67.291 175.975 51.616 178.428 43.565 180.793 35.455 183.003 27.516 183.345 26.302 183.7 25.043 184.042 23.821 185.785 17.666 187.566 11.33 188.691 5.314 187.048 11.035 180.487 32.89 172.773 50.698 163.54 72.032 148.684 89.078 145.002 92.037 L144.846 92.162 144.231 92.617 C144.042 93.149 143.853 93.674 143.787 93.857 143.442 94.757 143.093 95.661 142.743 96.567 142.026 98.447 141.281 100.32 140.539 102.195 139.046 105.946 137.51 109.672 135.935 113.387 134.371 117.064 132.827 120.779 130.89 124.288 129.099 127.537 126.935 130.639 124.057 133.036 121.145 135.459 117.636 136.94 113.938 137.718 110.044 138.532 106.03 138.644 102.065 138.667 101.261 138.675 100.462 138.678 99.664 138.685 98.855 138.678 98.059 138.675 97.255 138.667 93.295 138.644 89.276 138.532 85.386 137.718 81.686 136.94 78.172 135.459 75.263 133.036 72.39 130.639 70.226 127.537 68.43 124.288 66.496 120.779 64.954 117.064 63.385 113.387 61.81 109.672 60.274 105.946 58.784 102.195 58.036 100.32 57.299 98.447 56.577 96.567 56.227 95.661 55.883 94.757 55.538 93.857 55.472 93.674 55.283 93.149 55.092 92.617 L54.479 92.162 54.321 92.037 C50.639 89.078 35.468 71.238 26.231 49.909 18.448 31.926 12.081 10.429 10.573 5.124 Z" fill-opacity="1" fill="url(#linear-gradient-2)" stroke="none"/>
    </g>
   </g>
  </g>
 </g>
 <g id="g6265">
  <g id="g6267">
   <g id="g6273">
    <g id="g6275">
     <defs>
      <linearGradient id="linear-gradient-3" gradientUnits="userSpaceOnUse" x1="-2755.95" y1="1947.292" x2="-2753.398" y2="1947.292">
       <stop offset="0" stop-color="#272829" stop-opacity="1"/>
       <stop offset="0.157" stop-color="#ffffff" stop-opacity="1"/>
       <stop offset="0.371" stop-color="#c8c9cb" stop-opacity="1"/>
       <stop offset="1" stop-color="#8f9193" stop-opacity="1"/>
      </linearGradient>
     </defs>
     <path id="path6289" d="M10.836 3.747 C10.836 3.747 15.092 23.175 22.058 41.858 L22.074 41.881 22.058 41.881 C23.143 44.789 24.297 47.677 25.504 50.474 34.568 71.4 50.605 88.098 54.711 91.589 55.781 91.633 57.363 91.719 58.434 91.773 61.305 91.905 64.176 92.03 67.052 92.144 72.704 92.373 78.362 92.556 84.019 92.681 89.229 92.788 94.448 92.836 99.664 92.834 104.872 92.836 110.091 92.788 115.299 92.681 120.959 92.556 126.616 92.373 132.268 92.144 135.142 92.03 138.015 91.905 140.888 91.773 141.955 91.719 143.542 91.633 144.606 91.589 148.717 88.098 164.753 71.4 173.817 50.474 178.652 39.313 182.526 26.654 185.078 17.33 L185.047 17.348 185.078 17.307 C187.275 9.294 188.49 3.747 188.49 3.747 158.912 1.956 129.293 1.251 99.664 1.246 70.032 1.251 40.411 1.956 10.836 3.747" fill-opacity="1" fill="url(#linear-gradient-3)" stroke="none"/>
    </g>
   </g>
  </g>
 </g>
 <g id="g6291">
  <g id="g6293">
   <g id="g6299">
    <g id="g6301">
     <defs>
      <radialGradient id="radial-gradient" gradientUnits="userSpaceOnUse" cx="-2755.95" cy="1947.292" r="2.041" fx="-2755.95" fy="1947.292">
       <stop offset="0" stop-color="#ffffff" stop-opacity="1"/>
       <stop offset="0.924" stop-color="#d3d4d5" stop-opacity="1"/>
       <stop offset="1" stop-color="#d3d4d5" stop-opacity="1"/>
      </radialGradient>
     </defs>
     <path id="path6313" d="M10.836 3.742 L10.836 3.747 C10.836 3.747 15.092 23.175 22.058 41.858 L22.074 41.881 22.058 41.881 C22.428 42.873 22.806 43.858 23.192 44.84 36.405 45.448 50.215 45.395 64.406 44.601 112.857 41.916 155.944 31.236 185.32 16.422 187.359 8.89 188.49 3.747 188.49 3.747 L188.49 3.744 C174.399 2.599 133.769 1.246 99.664 1.246 65.572 1.246 24.947 2.597 10.836 3.742" fill-opacity="1" fill="url(#radial-gradient)" stroke="none"/>
    </g>
   </g>
  </g>
 </g>
 <g id="g6315">
  <g id="g6317">
   <g id="g6323">
    <path id="path6325" d="M155.142 47.185 L154.696 47.9 C154.872 48.262 156.538 51.687 156.538 51.687 L156.987 50.969 C156.811 50.608 155.142 47.185 155.142 47.185" fill="#ffffff" fill-opacity="1" stroke="none"/>
   </g>
   <g id="g6327">
    <path id="path6329" d="M141.337 47.185 C141.337 47.185 139.709 50.605 139.535 50.969 L132.965 50.969 131.86 51.689 132.413 51.687 139.987 51.687 C139.987 51.687 141.62 48.267 141.794 47.9 L154.696 47.9 155.142 47.185 Z" fill="#ffffff" fill-opacity="1" stroke="none"/>
   </g>
   <g id="g6331">
    <path id="path6333" d="M141.337 47.185 C141.337 47.185 139.709 50.605 139.535 50.969 L132.965 50.969 131.86 51.689 132.413 51.687 139.987 51.687 C139.987 51.687 141.62 48.267 141.794 47.9 L154.696 47.9 155.142 47.185 Z" fill="#c0c0c0" fill-opacity="1" stroke="none"/>
   </g>
   <g id="g6335">
    <path id="path6337" d="M161.614 45.103 C159.976 41.5 158.636 38.614 157.626 36.528 155.676 32.479 155.097 31.688 154.832 31.441 154.217 30.815 153.278 30.321 152.063 29.993 150.884 29.675 149.598 29.51 148.243 29.507 L148.243 30.22 C149.537 30.222 150.754 30.38 151.874 30.683 152.961 30.98 153.796 31.408 154.334 31.958 154.536 32.148 155.135 33.011 156.98 36.841 157.988 38.922 159.325 41.8 160.953 45.398 160.953 45.398 163.082 50.121 163.462 50.968 L156.988 50.968 156.539 51.686 164.569 51.686 Z" fill="#ffffff" fill-opacity="1" stroke="none"/>
   </g>
  </g>
 </g>
 <g id="g6339">
  <path id="path6341" d="M149.102 34.79 L149.092 34.742 149.084 34.727 Z" fill="#ffffff" fill-opacity="1" stroke="none"/>
 </g>
 <g id="g6343">
  <g id="g6345">
   <g id="g6351">
    <g id="g6353">
     <defs>
      <linearGradient id="linear-gradient-4" gradientUnits="userSpaceOnUse" x1="-2755.95" y1="1947.292" x2="-2753.398" y2="1947.292">
       <stop offset="0" stop-color="#2a2a2a" stop-opacity="1"/>
       <stop offset="0.157" stop-color="#ffffff" stop-opacity="1"/>
       <stop offset="0.371" stop-color="#cecccd" stop-opacity="1"/>
       <stop offset="1" stop-color="#8b888a" stop-opacity="1"/>
      </linearGradient>
     </defs>
     <path id="path6367" d="M149.085 34.728 L149.102 34.791 149.092 34.743 Z" fill-opacity="1" fill="url(#linear-gradient-4)" stroke="none"/>
    </g>
   </g>
  </g>
 </g>
 <g id="g6369">
  <g id="g6371">
   <g id="g6377">
    <path id="path6379" d="M85.805 47.185 L85.354 47.9 C85.53 48.262 87.196 51.687 87.196 51.687 L87.648 50.969 C87.469 50.608 85.805 47.185 85.805 47.185" fill="#ffffff" fill-opacity="1" stroke="none"/>
   </g>
   <g id="g6381">
    <path id="path6383" d="M71.992 47.185 C71.992 47.185 70.367 50.605 70.188 50.969 L63.62 50.969 62.515 51.689 63.066 51.687 70.64 51.687 C70.64 51.687 72.276 48.267 72.447 47.9 L85.354 47.9 85.805 47.185 Z" fill="#ffffff" fill-opacity="1" stroke="none"/>
   </g>
   <g id="g6385">
    <path id="path6387" d="M71.992 47.185 C71.992 47.185 70.367 50.605 70.188 50.969 L63.62 50.969 62.515 51.689 63.066 51.687 70.64 51.687 C70.64 51.687 72.276 48.267 72.447 47.9 L85.354 47.9 85.805 47.185 Z" fill="#c0c0c0" fill-opacity="1" stroke="none"/>
   </g>
   <g id="g6389">
    <path id="path6391" d="M92.27 45.103 C90.634 41.5 89.292 38.614 88.286 36.528 86.329 32.479 85.755 31.688 85.495 31.441 84.872 30.815 83.938 30.321 82.721 29.993 81.537 29.675 80.256 29.51 78.901 29.507 L78.901 30.22 C80.192 30.222 81.412 30.38 82.532 30.683 83.624 30.98 84.454 31.408 84.992 31.958 85.196 32.148 85.793 33.011 87.636 36.841 88.644 38.922 89.981 41.8 91.611 45.398 91.611 45.398 93.737 50.121 94.117 50.968 L87.646 50.968 87.197 51.686 95.232 51.686 Z" fill="#ffffff" fill-opacity="1" stroke="none"/>
   </g>
   <g id="g6393">
    <path id="path6395" d="M78.539 35.147 L78.83 34.992 78.83 34.279 C78.421 34.289 78.125 34.429 77.957 34.692 L73.496 44.033 74.635 43.318 C75.068 42.412 78.539 35.147 78.539 35.147" fill="#c0c0c0" fill-opacity="1" stroke="none"/>
   </g>
  </g>
 </g>
 <g id="g6397">
  <path id="path6399" d="M79.76 34.79 L79.747 34.742 79.732 34.727 Z" fill="#ffffff" fill-opacity="1" stroke="none"/>
 </g>
 <g id="g6401">
  <g id="g6403">
   <g id="g6409">
    <g id="g6411">
     <defs>
      <linearGradient id="linear-gradient-5" gradientUnits="userSpaceOnUse" x1="-2755.95" y1="1947.292" x2="-2753.398" y2="1947.292">
       <stop offset="0" stop-color="#2a2a2a" stop-opacity="1"/>
       <stop offset="0.157" stop-color="#ffffff" stop-opacity="1"/>
       <stop offset="0.371" stop-color="#cecccd" stop-opacity="1"/>
       <stop offset="1" stop-color="#8b888a" stop-opacity="1"/>
      </linearGradient>
     </defs>
     <path id="path6425" d="M79.732 34.728 L79.76 34.791 79.747 34.743 Z" fill-opacity="1" fill="url(#linear-gradient-5)" stroke="none"/>
    </g>
   </g>
  </g>
 </g>
 <g id="g6427">
  <g id="g6429">
   <g id="g6435">
    <g id="g6437">
     <defs>
      <linearGradient id="linear-gradient-6" gradientUnits="userSpaceOnUse" x1="-2755.95" y1="1947.292" x2="-2753.398" y2="1947.292">
       <stop offset="0" stop-color="#ffffff" stop-opacity="1"/>
       <stop offset="1" stop-color="#c1c1c1" stop-opacity="1"/>
      </linearGradient>
     </defs>
     <path id="path6445" d="M78.828 34.277 L78.828 34.992 78.895 34.987 79.152 35.137 C79.152 35.137 82.676 42.41 83.123 43.318 L74.633 43.318 73.497 44.031 84.269 44.031 79.747 34.743 79.76 34.791 79.732 34.728 79.747 34.743 C79.675 34.55 79.484 34.275 78.895 34.275 Z" fill-opacity="1" fill="url(#linear-gradient-6)" stroke="none"/>
    </g>
   </g>
  </g>
 </g>
 <g id="g6447">
  <g id="g6449">
   <g id="g6455">
    <path id="path6457" d="M147.869 35.147 L148.162 34.992 148.162 34.279 C147.751 34.289 147.458 34.429 147.289 34.692 L142.831 44.033 143.969 43.318 C144.403 42.412 147.869 35.147 147.869 35.147" fill="#c0c0c0" fill-opacity="1" stroke="none"/>
   </g>
  </g>
 </g>
 <g id="g6459">
  <g id="g6461">
   <g id="g6467">
    <g id="g6469">
     <defs>
      <linearGradient id="linear-gradient-7" gradientUnits="userSpaceOnUse" x1="-2755.95" y1="1947.292" x2="-2753.398" y2="1947.292">
       <stop offset="0" stop-color="#ffffff" stop-opacity="1"/>
       <stop offset="1" stop-color="#c1c1c1" stop-opacity="1"/>
      </linearGradient>
     </defs>
     <path id="path6477" d="M148.161 34.277 L148.161 34.992 148.23 34.987 148.488 35.137 C148.488 35.137 152.019 42.41 152.458 43.318 L143.968 43.318 142.833 44.031 153.604 44.031 149.079 34.743 149.095 34.791 149.074 34.728 149.079 34.743 C149.013 34.55 148.814 34.275 148.23 34.275 Z" fill-opacity="1" fill="url(#linear-gradient-7)" stroke="none"/>
    </g>
   </g>
  </g>
 </g>
 <g id="g6479">
  <path id="path6481" d="M123.091 30.316 L129.179 30.316 129.899 29.601 122.376 29.601 122.376 51.686 123.091 50.968 Z" fill="#ffffff" fill-opacity="1" stroke="none"/>
 </g>
 <g id="g6483">
  <path id="path6485" d="M129.899 29.6 L129.179 30.315 129.179 50.968 123.091 50.968 122.376 51.688 129.899 51.688 Z" fill="#c0c0c0" fill-opacity="1" stroke="none"/>
 </g>
 <g id="g6487">
  <g id="g6489">
   <g id="g6495">
    <g id="g6497">
     <defs>
      <linearGradient id="linear-gradient-8" gradientUnits="userSpaceOnUse" x1="-2755.95" y1="1947.292" x2="-2753.398" y2="1947.292">
       <stop offset="0" stop-color="#ffffff" stop-opacity="1"/>
       <stop offset="1" stop-color="#c1c1c1" stop-opacity="1"/>
      </linearGradient>
     </defs>
     <path id="path6505" d="M35.665 29.6 L35.665 51.687 36.384 50.967 36.384 30.315 51.652 30.315 C55.071 30.315 57.832 31.422 59.861 33.605 60.098 33.852 60.313 34.112 60.514 34.377 L61.022 33.868 C60.825 33.611 60.616 33.361 60.389 33.119 58.22 30.786 55.278 29.6 51.652 29.6 Z" fill-opacity="1" fill="url(#linear-gradient-8)" stroke="none"/>
    </g>
   </g>
  </g>
 </g>
 <g id="g6507">
  <g id="g6509">
   <g id="g6515">
    <path id="path6517" d="M43.19 34.826 L50.529 34.826 C51.948 34.826 53.058 35.297 53.918 36.244 L54.423 35.74 C53.438 34.666 52.129 34.114 50.529 34.114 L42.47 34.114 42.47 47.046 43.19 46.328 Z" fill="#c0c0c0" fill-opacity="1" stroke="none"/>
   </g>
   <g id="g6519">
    <path id="path6521" d="M60.454 48.296 C62.361 46.296 63.333 43.782 63.333 40.827 63.333 38.166 62.552 35.83 61.023 33.868 L60.513 34.377 C61.906 36.199 62.616 38.362 62.616 40.827 62.616 43.591 61.712 45.945 59.934 47.805 57.936 49.904 55.144 50.968 51.651 50.968 L36.383 50.968 35.664 51.688 51.651 51.688 C55.351 51.688 58.311 50.545 60.454 48.296" fill="#c0c0c0" fill-opacity="1" stroke="none"/>
   </g>
  </g>
 </g>
 <g id="g6523">
  <g id="g6525">
   <g id="g6531">
    <g id="g6533">
     <defs>
      <linearGradient id="linear-gradient-9" gradientUnits="userSpaceOnUse" x1="-2755.95" y1="1947.292" x2="-2753.398" y2="1947.292">
       <stop offset="0" stop-color="#ffffff" stop-opacity="1"/>
       <stop offset="1" stop-color="#c1c1c1" stop-opacity="1"/>
      </linearGradient>
     </defs>
     <path id="path6541" d="M53.918 36.244 L54.17 36.542 C54.966 37.58 55.367 38.883 55.367 40.433 55.367 42.033 54.951 43.407 54.129 44.509 53.211 45.738 52.027 46.328 50.529 46.328 L43.19 46.328 42.47 47.046 50.529 47.046 C52.251 47.046 53.657 46.339 54.701 44.937 55.617 43.702 56.089 42.188 56.089 40.433 56.089 38.725 55.63 37.27 54.744 36.112 L54.423 35.738 Z" fill-opacity="1" fill="url(#linear-gradient-9)" stroke="none"/>
    </g>
   </g>
  </g>
 </g>
 <g id="g6543">
  <g id="g6545">
   <g id="g6551">
    <g id="g6553">
     <defs>
      <linearGradient id="linear-gradient-10" gradientUnits="userSpaceOnUse" x1="-2755.95" y1="1947.292" x2="-2753.398" y2="1947.292">
       <stop offset="0" stop-color="#ffffff" stop-opacity="1"/>
       <stop offset="1" stop-color="#c1c1c1" stop-opacity="1"/>
      </linearGradient>
     </defs>
     <path id="path6561" d="M78.872 29.506 C77.494 29.506 76.187 29.674 75.014 29.992 73.806 30.323 72.86 30.814 72.201 31.453 71.959 31.71 71.42 32.509 69.463 36.539 L65.434 45.117 62.515 51.69 63.62 50.967 C63.992 50.13 66.085 45.412 66.085 45.412 L70.109 36.857 C71.882 33.211 72.503 32.178 72.717 31.949 73.273 31.412 74.113 30.979 75.202 30.682 76.32 30.376 77.553 30.219 78.872 30.219 L78.9 30.219 C80.193 30.224 81.413 30.379 82.531 30.682 83.626 30.979 84.453 31.407 84.994 31.959 85.195 32.147 85.792 33.013 87.637 36.84 88.643 38.921 89.98 41.799 91.613 45.397 93.246 48.995 93.736 50.12 94.116 50.967 L87.647 50.967 87.196 51.687 95.231 51.687 92.269 45.105 C90.633 41.501 89.293 38.616 88.288 36.527 86.328 32.478 85.757 31.687 85.494 31.44 84.871 30.814 83.94 30.323 82.72 29.992 81.536 29.674 80.255 29.509 78.9 29.506 Z" fill-opacity="1" fill="url(#linear-gradient-10)" stroke="none"/>
    </g>
   </g>
  </g>
 </g>
 <g id="g6563">
  <g id="g6565">
   <g id="g6571">
    <g id="g6573">
     <defs>
      <linearGradient id="linear-gradient-11" gradientUnits="userSpaceOnUse" x1="-2755.95" y1="1947.292" x2="-2753.398" y2="1947.292">
       <stop offset="0" stop-color="#ffffff" stop-opacity="1"/>
       <stop offset="1" stop-color="#c1c1c1" stop-opacity="1"/>
      </linearGradient>
     </defs>
     <path id="path6581" d="M148.214 29.506 C146.834 29.506 145.538 29.674 144.359 29.992 143.149 30.323 142.205 30.814 141.546 31.453 141.299 31.71 140.768 32.509 138.808 36.539 L134.772 45.117 131.86 51.69 132.962 50.967 C133.33 50.13 135.43 45.412 135.43 45.412 L139.452 36.857 C141.222 33.211 141.848 32.178 142.057 31.949 142.616 31.412 143.463 30.979 144.547 30.682 145.665 30.376 146.9 30.219 148.214 30.219 L148.242 30.219 C149.536 30.224 150.756 30.379 151.874 30.682 152.961 30.979 153.793 31.407 154.336 31.959 154.538 32.147 155.135 33.013 156.98 36.84 157.99 38.921 159.325 41.799 160.953 45.397 162.581 48.995 163.084 50.12 163.459 50.967 L156.985 50.967 156.538 51.687 164.569 51.687 161.614 45.105 C159.978 41.501 158.636 38.616 157.623 36.527 155.676 32.478 155.097 31.687 154.831 31.44 154.219 30.814 153.28 30.323 152.063 29.992 150.884 29.674 149.597 29.509 148.242 29.506 Z" fill-opacity="1" fill="url(#linear-gradient-11)" stroke="none"/>
    </g>
   </g>
  </g>
 </g>
 <g id="g6583">
  <g id="g6585">
   <g id="g6591">
    <g id="g6593">
     <defs>
      <linearGradient id="linear-gradient-12" gradientUnits="userSpaceOnUse" x1="-2755.95" y1="1947.292" x2="-2753.398" y2="1947.292">
       <stop offset="0" stop-color="#ffffff" stop-opacity="1"/>
       <stop offset="1" stop-color="#c1c1c1" stop-opacity="1"/>
      </linearGradient>
     </defs>
     <path id="path6601" d="M105.865 29.6 C102.236 29.6 99.294 30.786 97.128 33.119 95.173 35.224 94.185 37.814 94.185 40.827 94.185 42.743 94.604 44.473 95.423 46.005 95.862 46.827 96.413 47.598 97.087 48.295 99.225 50.545 102.183 51.687 105.865 51.687 L119.203 51.687 119.203 46.328 118.481 47.046 118.481 50.967 105.865 50.967 C102.384 50.967 99.608 49.906 97.605 47.804 96.923 47.094 96.372 46.318 95.953 45.476 95.254 44.097 94.902 42.537 94.902 40.827 94.902 38.003 95.826 35.575 97.656 33.603 99.682 31.42 102.445 30.315 105.865 30.315 L118.481 30.315 119.203 29.6 Z" fill-opacity="1" fill="url(#linear-gradient-12)" stroke="none"/>
    </g>
   </g>
  </g>
 </g>
 <g id="g6603">
  <g id="g6605">
   <g id="g6611">
    <g id="g6613">
     <defs>
      <linearGradient id="linear-gradient-13" gradientUnits="userSpaceOnUse" x1="-2755.95" y1="1947.292" x2="-2753.398" y2="1947.292">
       <stop offset="0" stop-color="#ffffff" stop-opacity="1"/>
       <stop offset="1" stop-color="#c1c1c1" stop-opacity="1"/>
      </linearGradient>
     </defs>
     <path id="path6621" d="M118.481 30.315 L118.481 34.112 106.993 34.112 C105.229 34.112 103.813 34.786 102.797 36.112 101.892 37.277 101.435 38.733 101.435 40.433 L101.447 40.845 C101.514 42.415 101.971 43.792 102.815 44.934 103.846 46.339 105.252 47.046 106.993 47.046 L118.481 47.046 119.203 46.329 106.993 46.329 C105.474 46.329 104.295 45.738 103.395 44.512 102.57 43.397 102.157 42.02 102.157 40.433 L102.159 40.247 C102.192 38.789 102.593 37.547 103.367 36.55 104.252 35.392 105.441 34.827 106.993 34.827 L119.203 34.827 119.203 29.6 Z" fill-opacity="1" fill="url(#linear-gradient-13)" stroke="none"/>
    </g>
   </g>
  </g>
 </g>
 <g id="g6623">
  <g id="g6625">
   <g id="g6631">
    <path id="path6633" d="M59.859 33.607 C57.83 31.427 55.069 30.32 51.65 30.32 L36.385 30.32 36.385 50.969 51.65 50.969 C55.143 50.969 57.93 49.906 59.925 47.806 61.714 45.944 62.612 43.595 62.612 40.826 62.612 38.007 61.686 35.574 59.859 33.607 M54.697 44.939 C53.655 46.338 52.247 47.046 50.524 47.046 L42.468 47.046 42.468 34.116 50.524 34.116 C52.303 34.116 53.724 34.791 54.74 36.114 55.633 37.272 56.085 38.727 56.085 40.432 56.085 42.193 55.618 43.704 54.697 44.939" fill="#202b53" fill-opacity="1" stroke="none"/>
   </g>
   <g id="g6635">
    <path id="path6637" d="M97.598 47.808 C95.801 45.932 94.898 43.584 94.898 40.828 94.898 38.006 95.819 35.576 97.646 33.606 99.672 31.425 102.436 30.319 105.858 30.319 L118.471 30.319 118.471 34.118 106.983 34.118 C105.217 34.118 103.806 34.789 102.79 36.115 101.882 37.281 101.423 38.734 101.423 40.431 101.423 42.179 101.892 43.696 102.806 44.935 103.837 46.337 105.243 47.047 106.983 47.047 L118.471 47.047 118.471 50.968 105.858 50.968 C102.375 50.968 99.598 49.904 97.598 47.808" fill="#202b53" fill-opacity="1" stroke="none"/>
   </g>
  </g>
 </g>
 <path id="path6639" d="M129.165 50.97 L123.077 50.97 123.077 30.32 129.165 30.32 Z" fill="#202b53" fill-opacity="1" stroke="none"/>
 <g id="g6641">
  <g id="g6643">
   <g id="g6649">
    <path id="path6651" d="M160.939 45.4 C159.308 41.802 157.971 38.921 156.968 36.842 155.118 33.015 154.521 32.153 154.32 31.962 153.779 31.412 152.944 30.98 151.862 30.687 150.732 30.382 149.504 30.226 148.2 30.226 146.886 30.226 145.649 30.382 144.531 30.687 143.446 30.982 142.597 31.412 142.046 31.949 141.834 32.183 141.209 33.214 139.438 36.86 L135.416 45.413 C135.416 45.413 133.321 50.13 132.948 50.968 L139.517 50.968 C139.695 50.604 141.321 47.186 141.321 47.186 L155.126 47.186 C155.126 47.186 156.795 50.606 156.968 50.968 L163.447 50.968 C163.065 50.12 160.939 45.4 160.939 45.4 M142.824 44.036 L147.287 34.697 C147.463 34.42 147.774 34.275 148.223 34.275 148.805 34.275 149.004 34.547 149.076 34.743 L153.595 44.036 Z" fill="#202b53" fill-opacity="1" stroke="none"/>
   </g>
   <g id="g6653">
    <path id="path6655" d="M91.604 45.4 C89.974 41.802 88.637 38.921 87.629 36.842 85.789 33.015 85.192 32.153 84.985 31.962 84.444 31.412 83.617 30.98 82.522 30.687 81.4 30.382 80.167 30.226 78.863 30.226 77.544 30.226 76.314 30.382 75.196 30.687 74.107 30.982 73.267 31.412 72.708 31.949 72.499 32.183 71.879 33.214 70.103 36.86 L66.084 45.413 C66.084 45.413 63.989 50.13 63.616 50.968 L70.187 50.968 C70.361 50.604 71.984 47.186 71.984 47.186 L85.796 47.186 C85.796 47.186 87.46 50.606 87.636 50.968 L94.11 50.968 C93.73 50.12 91.604 45.4 91.604 45.4 M73.492 44.036 L77.95 34.697 C78.126 34.42 78.442 34.275 78.889 34.275 79.473 34.275 79.672 34.547 79.736 34.743 L84.263 44.036 Z" fill="#202b53" fill-opacity="1" stroke="none"/>
   </g>
  </g>
 </g>
 <g id="g6657">
  <g id="g6659">
   <g id="g6665">
    <g id="g6667">
     <defs>
      <linearGradient id="linear-gradient-14" gradientUnits="userSpaceOnUse" x1="-2755.95" y1="1947.292" x2="-2753.398" y2="1947.292">
       <stop offset="0" stop-color="#696e93" stop-opacity="1"/>
       <stop offset="1" stop-color="#2b365f" stop-opacity="1"/>
      </linearGradient>
     </defs>
     <path id="path6675" d="M144.532 30.687 C143.445 30.982 142.598 31.412 142.044 31.951 141.965 32.036 141.83 32.231 141.605 32.626 144.366 31.883 147.074 31.109 149.733 30.31 149.235 30.259 148.725 30.226 148.199 30.226 146.885 30.226 145.647 30.379 144.532 30.687 M75.197 30.687 C74.11 30.982 73.268 31.412 72.709 31.951 72.497 32.183 71.877 33.216 70.101 36.857 L66.521 44.476 C68.861 44.336 71.198 44.181 73.508 44.003 L77.953 34.697 C78.132 34.42 78.44 34.275 78.89 34.275 79.471 34.275 79.673 34.547 79.737 34.743 L83.797 43.077 C85.953 42.855 88.091 42.621 90.222 42.374 89.206 40.158 88.336 38.3 87.63 36.842 85.79 33.015 85.192 32.152 84.986 31.962 84.445 31.412 83.618 30.979 82.526 30.687 81.401 30.379 80.17 30.226 78.869 30.226 77.545 30.226 76.312 30.379 75.197 30.687 M123.079 30.318 L123.079 37.046 C125.128 36.621 127.162 36.175 129.168 35.717 L129.168 30.318 Z M105.857 30.318 C102.435 30.318 99.674 31.427 97.645 33.605 95.818 35.578 94.897 38.005 94.897 40.827 94.897 41.153 94.91 41.473 94.933 41.784 97.122 41.501 99.289 41.196 101.437 40.886 L101.425 40.433 C101.425 38.735 101.881 37.282 102.79 36.114 103.803 34.791 105.217 34.117 106.982 34.117 L118.468 34.117 118.468 30.318 Z M36.384 30.318 L36.384 45.217 C38.4 45.242 40.426 45.25 42.47 45.245 L42.47 34.117 50.524 34.117 C52.302 34.117 53.724 34.791 54.739 36.114 55.63 37.272 56.084 38.728 56.084 40.433 56.084 42.193 55.617 43.708 54.696 44.939 L54.619 45.031 C57.036 44.954 59.465 44.853 61.905 44.733 62.372 43.545 62.612 42.242 62.612 40.827 62.612 38.005 61.685 35.578 59.858 33.608 57.832 31.427 55.069 30.318 51.652 30.318 Z" fill-opacity="1" fill="url(#linear-gradient-14)" stroke="none"/>
    </g>
   </g>
  </g>
 </g>
 <g id="g6677">
  <g id="g6679">
   <g id="g6685">
    <g id="g6687">
     <defs>
      <linearGradient id="linear-gradient-15" gradientUnits="userSpaceOnUse" x1="-2755.95" y1="1947.292" x2="-2753.398" y2="1947.292">
       <stop offset="0" stop-color="#ffffff" stop-opacity="1"/>
       <stop offset="1" stop-color="#ffffff" stop-opacity="1"/>
      </linearGradient>
     </defs>
     <path id="path6695" d="M184.042 23.837 C183.7 25.058 183.345 26.32 183.003 27.534 180.793 35.471 178.428 43.58 175.975 51.634 171.188 67.314 165.702 83.276 159.657 99.071 156.449 107.44 153.463 114.812 150.516 121.613 147.913 127.634 144.604 134.553 139.781 140.222 134.879 145.983 129.448 149.673 122.709 151.841 116.84 153.724 109.95 154.525 99.664 154.525 89.37 154.525 82.477 153.724 76.613 151.841 69.869 149.673 64.441 145.983 59.539 140.222 54.722 134.553 51.407 127.634 48.801 121.619 45.857 114.812 42.871 107.44 39.666 99.071 33.621 83.281 28.134 67.319 23.347 51.634 20.9 43.59 18.534 35.478 16.317 27.534 15.921 26.124 15.523 24.714 15.097 23.226 13.227 16.653 11.298 9.869 10.346 3.798 L9.884 3.839 C9.307 3.887 8.756 3.945 8.228 4.004 9.409 11.62 12.117 20.356 14.27 28.096 16.524 36.175 18.879 44.224 21.319 52.247 26.21 68.291 31.687 84.152 37.683 99.824 40.595 107.425 43.624 114.982 46.859 122.453 49.786 129.222 53.106 135.922 57.919 141.586 68.677 154.225 81.375 156.638 99.664 156.638 117.945 156.638 130.645 154.225 141.393 141.586 146.216 135.922 149.536 129.222 152.463 122.453 155.696 114.982 158.725 107.425 161.637 99.821 167.633 84.152 173.11 68.291 177.999 52.247 180.446 44.224 182.794 36.175 185.044 28.096 187.206 20.348 189.763 11.854 191.08 4.004 190.546 3.945 189.993 3.887 189.421 3.839 L188.972 3.798 C187.88 10.264 185.933 17.157 184.042 23.837" fill-opacity="1" fill="url(#linear-gradient-15)" stroke="none"/>
    </g>
   </g>
  </g>
 </g>
 <g id="g6697">
  <g id="g6699">
   <g id="g6705">
    <g id="g6707">
     <defs>
      <linearGradient id="linear-gradient-16" gradientUnits="userSpaceOnUse" x1="-2755.95" y1="1947.292" x2="-2753.398" y2="1947.292">
       <stop offset="0" stop-color="#484848" stop-opacity="1"/>
       <stop offset="0.04" stop-color="#3e3e3e" stop-opacity="1"/>
       <stop offset="0.54" stop-color="#000000" stop-opacity="1"/>
       <stop offset="1" stop-color="#202020" stop-opacity="1"/>
      </linearGradient>
     </defs>
     <path id="path6719" d="M10.157 3.793 L10.157 3.823 C10.394 4.9 16.034 30.392 24.85 50.743 33.743 71.281 49.639 88.528 54.15 92.154 L54.311 92.282 C54.313 92.282 54.972 92.768 55.209 92.938 55.446 93.109 54.857 91.958 54.711 91.572 51.106 88.495 34.792 71.63 25.6 50.418 16.725 29.918 11.002 4.012 10.938 3.727 10.667 3.749 10.41 3.767 10.157 3.793 M173.717 50.418 C164.536 71.624 148.184 88.556 144.606 91.589 L144.588 91.623 C144.463 91.971 144.086 93.009 144.086 93.009 L144.974 92.348 145.142 92.216 C149.654 88.594 165.585 71.278 174.472 50.743 183.251 30.476 188.972 4.9 189.201 3.823 L189.209 3.798 C188.946 3.775 188.668 3.752 188.38 3.732 188.308 4.055 182.587 29.939 173.717 50.418" fill-opacity="1" fill="url(#linear-gradient-16)" stroke="none"/>
    </g>
   </g>
  </g>
 </g>
</svg>
