<?xml version="1.0" encoding="UTF-8"?>
<svg width="200px" height="78px" viewBox="0 0 200 78" xmlns="http://www.w3.org/2000/svg" xmlns:xlink="http://www.w3.org/1999/xlink" version="1.1">
 <!-- Generated by Pixelmator Pro 2.0.8 -->
 <g id="layer1">
  <path id="path737" d="M98.365 1.147 C44.405 1.147 1.15 17.267 1.15 37.478 1.15 57.566 44.762 73.811 98.365 73.811 151.971 73.811 195.582 57.511 195.582 37.478 195.582 17.444 151.971 1.147 98.365 1.147" fill="#003478" fill-opacity="1" stroke="none"/>
  <path id="path741" d="M136.658 45.174 C136.684 45.34 136.903 45.5 137.115 45.575 137.193 45.601 137.232 45.653 137.15 45.83 136.545 47.123 135.988 47.869 135.229 48.992 134.531 50.031 133.745 50.841 132.793 51.62 131.357 52.804 129.363 54.093 127.714 53.226 126.982 52.848 126.665 51.826 126.68 50.999 126.714 48.674 127.752 46.287 129.669 43.941 132.005 41.074 134.588 39.587 136.283 40.4 138.037 41.233 137.477 43.257 136.692 44.846 136.631 44.969 136.631 45.073 136.657 45.173 M155.478 27.055 C155.604 26.834 155.471 26.672 155.19 26.672 153.725 26.672 151.803 26.675 150.277 26.675 149.913 26.675 149.725 26.718 149.554 27.056 148.99 28.132 142.125 38.387 140.847 40.379 140.631 40.682 140.369 40.64 140.338 40.292 140.208 39.109 139.184 37.75 137.569 37.099 136.338 36.601 135.135 36.511 133.884 36.677 131.626 36.979 129.614 38.166 127.846 39.505 125.18 41.525 122.88 44.143 119.911 46.078 118.29 47.131 116.07 48.049 114.585 46.678 113.241 45.436 113.393 42.678 115.45 40.544 115.666 40.32 115.926 40.509 115.885 40.708 115.691 41.673 115.929 42.632 116.664 43.305 117.562 44.107 118.846 44.197 119.945 43.662 121.241 43.022 122.003 41.785 122.226 40.381 122.569 38.204 120.888 36.284 118.783 36.13 117.074 36.01 115.435 36.603 113.838 37.917 113.037 38.579 112.582 39.068 111.89 40.05 111.721 40.291 111.462 40.316 111.469 39.959 111.548 37.171 110.392 35.603 108.08 35.552 106.285 35.508 104.368 36.479 102.873 37.667 101.235 38.978 99.802 40.716 98.266 42.349 98.075 42.55 97.909 42.541 97.855 42.151 97.812 40.304 97.343 38.515 96.485 37.244 96.182 36.802 95.543 36.584 95.006 36.882 94.758 37.017 93.896 37.413 93.269 37.916 92.957 38.172 92.836 38.542 92.974 39.016 93.802 41.776 93.62 44.913 92.496 47.563 91.465 49.989 89.461 52.178 87.105 52.919 85.553 53.409 83.939 53.169 82.941 51.798 81.57 49.905 82.123 46.614 84.167 43.881 85.971 41.474 88.58 39.945 91.183 38.961 91.489 38.843 91.552 38.647 91.465 38.388 91.325 37.962 91.098 37.381 91.007 37.116 90.768 36.482 90.1 36.38 89.284 36.468 87.393 36.688 85.687 37.333 84.002 38.233 79.589 40.588 77.377 45.145 76.408 47.584 75.941 48.755 75.542 49.486 75.026 50.134 74.33 51.005 73.457 51.798 71.861 53.196 71.716 53.324 71.608 53.591 71.73 53.84 71.893 54.176 72.723 55.345 72.957 55.449 73.217 55.577 73.519 55.397 73.64 55.312 74.757 54.557 76.094 53.361 76.748 52.549 76.978 52.271 77.213 52.388 77.335 52.81 77.945 54.981 79.544 56.753 81.754 57.495 85.8 58.854 89.996 56.886 93.164 53.46 95.177 51.282 95.903 49.881 96.675 48.929 97.982 47.314 100.562 43.702 103.634 41.382 104.761 40.527 106.094 39.875 106.764 40.308 107.303 40.655 107.477 41.463 106.613 43.028 103.481 48.729 98.872 55.427 98.027 57.051 97.872 57.333 98.009 57.555 98.303 57.555 99.942 57.547 101.567 57.551 103.055 57.551 103.303 57.542 103.413 57.426 103.538 57.252 105.942 53.501 108.204 49.932 110.629 46.241 110.764 46.024 110.89 46.19 110.895 46.285 110.947 47.141 111.156 48.312 111.666 49.081 112.583 50.503 113.882 51.114 115.322 51.123 116.468 51.14 117.048 50.963 118.285 50.503 119.29 50.131 120.098 49.643 120.717 49.201 121.079 48.95 121.143 49.37 121.134 49.434 120.577 52.412 121.265 55.939 124.233 57.402 127.786 59.148 131.689 56.694 133.936 54.478 134.156 54.265 134.391 54.288 134.414 54.748 134.466 55.594 134.845 56.598 135.547 57.3 137.429 59.183 141.227 58.437 145.039 55.496 147.486 53.614 150.046 50.954 152.359 48.138 152.446 48.028 152.509 47.853 152.342 47.676 151.99 47.308 151.48 46.888 151.131 46.564 150.972 46.429 150.738 46.468 150.604 46.569 148.233 48.816 146.099 51.379 143.015 53.498 141.974 54.222 140.316 54.806 139.572 53.801 139.281 53.411 139.314 52.872 139.598 52.164 140.497 49.929 154.735 28.323 155.474 27.049" fill="#ffffff" fill-opacity="1" stroke="none"/>
  <path id="path745" d="M88.49 29.662 C88.551 29.983 88.676 30.046 88.822 30.019 89.547 29.874 90.341 29.279 90.811 28.59 91.239 27.965 91.439 27.064 91.014 26.702 90.635 26.377 90.018 26.469 89.56 26.872 88.649 27.675 88.372 28.813 88.489 29.663 M52.201 57.474 C46.892 57.508 42.215 54.241 41.678 48.58 41.38 45.444 42.27 42.648 44.05 40.345 45.631 38.293 48.305 36.588 50.568 36.171 51.305 36.037 52.294 36.119 52.703 36.608 53.345 37.353 53.161 38.17 52.519 38.497 50.792 39.375 48.714 40.88 47.686 42.934 46.852 44.611 46.684 46.631 47.958 48.556 50.089 51.764 56.032 51.852 61.558 46.736 62.926 45.484 64.151 44.281 65.395 42.856 67.829 40.083 68.639 39.072 71.874 34.6 71.908 34.548 71.926 34.48 71.908 34.447 71.882 34.386 71.839 34.378 71.742 34.369 69.583 34.43 67.7 35.07 65.87 36.433 65.343 36.816 64.584 36.763 64.252 36.258 63.883 35.688 64.148 34.946 64.756 34.526 67.7 32.486 70.916 32.116 74.2 31.563 74.197 31.563 74.428 31.572 74.616 31.326 75.964 29.601 76.982 28.046 78.419 26.302 79.867 24.532 81.738 22.907 83.167 21.687 85.162 19.977 86.441 19.402 87.741 18.697 88.084 18.518 87.698 18.305 87.593 18.305 80.334 16.945 72.789 15.186 65.58 17.846 60.587 19.703 58.399 23.649 59.451 26.286 60.2 28.156 62.668 28.46 64.979 27.333 66.898 26.396 68.674 24.886 69.933 22.941 70.638 21.861 72.122 22.64 71.32 24.515 69.21 29.457 65.18 33.377 60.271 33.543 56.093 33.678 53.397 30.615 53.406 26.835 53.424 19.381 61.749 14.471 70.5 13.737 81.038 12.869 91.019 15.667 101.482 16.931 109.498 17.899 117.184 17.919 125.242 16.074 126.194 15.868 126.863 16.474 126.801 17.433 126.722 18.819 125.645 20.154 122.991 21.596 119.973 23.246 116.815 23.746 113.518 23.773 105.544 23.843 98.116 20.742 90.429 19.077 90.438 19.412 90.527 19.812 90.245 20.024 85.987 23.154 82.139 26.332 79.561 30.796 79.474 30.9 79.518 30.997 79.672 30.987 81.91 30.868 83.922 30.811 86.011 30.645 86.377 30.61 86.391 30.523 86.358 30.258 86.173 28.719 86.625 26.965 87.983 25.758 89.373 24.516 91.113 24.374 92.267 25.269 93.578 26.288 93.462 28.12 92.745 29.494 92.014 30.888 90.808 31.633 89.65 31.995 89.65 31.995 89.407 32.047 89.443 32.267 89.487 32.619 91.066 33.49 91.201 33.723 91.332 33.944 91.262 34.286 91.025 34.549 90.858 34.739 90.596 34.918 90.261 34.912 89.991 34.906 89.827 34.813 89.48 34.627 88.773 34.244 87.888 33.616 87.298 32.875 87.097 32.625 86.994 32.62 86.493 32.647 84.232 32.777 80.707 33.117 78.318 33.414 77.739 33.484 77.654 33.594 77.535 33.794 73.727 40.053 69.661 46.802 65.196 51.32 60.408 56.165 56.428 57.441 52.202 57.474" fill="#ffffff" fill-opacity="1" stroke="none"/>
  <path id="path749" d="M98.363 7.088 C48.721 7.088 8.483 20.759 8.483 37.489 8.483 54.22 48.721 67.894 98.363 67.894 148.004 67.894 188.24 54.22 188.24 37.489 188.24 20.759 148.004 7.088 98.363 7.088 M98.363 70.649 C46.914 70.649 5.207 55.803 5.207 37.489 5.207 19.173 46.914 4.33 98.363 4.33 149.808 4.33 191.512 19.173 191.512 37.489 191.512 55.803 149.808 70.649 98.363 70.649" fill="#ffffff" fill-opacity="1" stroke="none"/>
 </g>
</svg>
