<?xml version="1.0" encoding="UTF-8"?>
<svg width="200px" height="70px" viewBox="0 0 200 70" xmlns="http://www.w3.org/2000/svg" xmlns:xlink="http://www.w3.org/1999/xlink" version="1.1">
 <!-- Generated by Pixelmator Pro 2.0.8 -->
 <path id="Pfad" d="M34.021 4.118 C17.15 4.679 3.847 18.645 4.128 35.498 4.409 52.35 18.172 65.865 35.052 65.865 51.932 65.865 65.694 52.35 65.975 35.498 66.256 18.645 52.953 4.679 36.082 4.118 Z M77.32 4.118 C60.449 4.679 47.146 18.645 47.427 35.498 47.708 52.35 61.471 65.865 78.351 65.865 95.231 65.865 108.993 52.35 109.274 35.498 109.555 18.645 96.252 4.679 79.381 4.118 Z M120.619 4.118 C103.748 4.679 90.445 18.645 90.726 35.498 91.007 52.35 104.77 65.865 121.649 65.865 138.529 65.865 152.292 52.35 152.573 35.498 152.854 18.645 139.551 4.679 122.68 4.118 Z M163.918 4.118 C147.047 4.679 133.744 18.645 134.025 35.498 134.306 52.35 148.068 65.865 164.948 65.865 181.828 65.865 195.591 52.35 195.872 35.498 196.153 18.645 182.85 4.679 165.979 4.118 Z" fill="none" stroke="#000000" stroke-width="7.211" stroke-opacity="1" stroke-linejoin="round" stroke-linecap="round"/>
</svg>
