<svg xmlns="http://www.w3.org/2000/svg" xmlns:xlink="http://www.w3.org/1999/xlink" preserveAspectRatio="xMidYMid" width="334.4" height="166.8" viewBox="0 0 3344 1668">
  <defs>
    <style>
      .cls-1 {
        fill: #000;
        fill-rule: evenodd;
      }
    </style>
  </defs>
  <path d="M3332.000,915.000 C3321.732,955.321 3308.221,996.966 3289.000,1030.000 C3226.231,1137.881 3148.246,1225.014 3050.000,1297.000 C2828.830,1459.055 2564.542,1547.219 2249.000,1617.000 C2177.518,1632.808 2082.695,1643.203 2028.000,1650.000 C1996.670,1652.666 1965.330,1655.334 1934.000,1658.000 C1834.232,1664.121 1769.899,1668.000 1672.000,1668.000 C1604.622,1668.000 1544.574,1666.517 1520.000,1666.000 C1435.732,1662.560 1364.165,1660.214 1290.000,1647.000 C1191.644,1629.476 1094.742,1621.110 1003.000,1598.000 C612.189,1499.551 243.265,1352.466 63.000,1045.000 C35.076,997.372 17.548,941.675 5.000,879.000 C0.450,856.272 -0.230,833.012 0.178,809.981 C1.216,751.294 14.809,694.098 30.000,651.000 C46.732,603.531 70.799,535.955 106.000,508.000 C154.265,469.670 216.884,447.709 279.000,427.000 C554.620,336.663 887.943,282.104 1106.000,280.000 C1263.470,172.999 1409.227,120.747 1568.000,67.000 C1758.526,4.947 1861.771,1.000 1953.000,1.000 C2091.948,-0.526 2233.989,7.576 2332.000,36.000 C2499.437,78.682 2607.870,141.021 2735.000,221.000 C2777.996,249.664 2821.004,278.336 2864.000,307.000 C2901.311,324.248 3052.646,358.969 3146.000,417.000 C3265.433,491.242 3384.455,709.007 3332.000,915.000 ZM2100.007,1383.000 L2175.731,966.815 L2342.976,1383.000 L2410.159,1383.000 L2468.197,1065.413 C2494.999,1107.521 2538.543,1135.000 2599.000,1135.000 C2719.005,1135.000 2783.581,1075.746 2788.727,1050.714 C2788.644,1050.498 2788.561,1050.294 2788.477,1050.081 L2788.644,1050.186 L2817.422,914.024 L2693.000,914.000 L2681.000,975.000 L2743.000,975.000 L2734.655,1016.045 L2734.973,1016.246 C2717.944,1079.910 2634.355,1081.667 2599.000,1079.667 C2475.971,1052.667 2497.833,902.166 2508.333,858.333 C2515.232,829.136 2545.732,667.500 2735.000,663.000 C2784.708,663.000 2842.968,688.708 2892.895,773.357 C2927.433,820.858 2935.924,889.000 3135.000,889.000 C2953.011,853.141 2966.265,779.173 2914.949,692.952 C2895.318,666.458 2880.013,652.687 2862.869,641.541 C2825.127,618.671 2782.353,608.000 2735.000,608.000 C2523.313,608.000 2457.611,797.966 2447.500,858.000 C2447.465,858.105 2447.429,858.236 2447.394,858.351 L2447.339,858.351 L2447.248,858.846 C2446.750,860.677 2446.221,863.562 2445.701,867.315 L2371.370,1274.054 L2204.000,859.000 L2137.000,859.000 L2041.308,1383.000 L2100.007,1383.000 ZM1951.117,1383.000 L2110.537,499.194 C2110.578,499.197 2110.620,499.200 2110.661,499.203 L2120.759,443.512 C2120.701,443.507 2120.641,443.503 2120.583,443.498 L2159.735,226.446 C2146.781,225.017 2131.541,223.003 2118.000,222.000 L2073.392,440.521 C2073.244,440.515 2073.106,440.511 2072.958,440.505 L2061.655,496.411 C2061.765,496.415 2061.870,496.418 2061.981,496.422 L1881.000,1383.000 L1951.117,1383.000 ZM1256.588,1383.000 L1302.000,1135.000 L1496.000,1135.000 L1450.244,1383.000 L1518.395,1383.000 L1563.597,1134.995 L1628.176,1134.995 L1726.641,1383.000 L1802.640,1383.000 L1688.055,1132.728 C1727.487,1116.189 1758.862,1092.139 1782.175,1060.589 C1805.484,1029.039 1817.143,995.540 1817.143,960.091 C1817.143,935.514 1811.374,914.777 1799.838,897.877 C1788.301,880.983 1773.823,870.172 1756.406,865.441 C1738.988,860.717 1717.683,859.000 1692.000,859.000 L1546.000,859.000 L1506.000,1080.000 L1312.000,1080.000 L1352.000,859.000 L1284.000,859.000 L1188.431,1383.000 L1256.588,1383.000 ZM532.000,1135.000 C652.005,1135.000 716.581,1075.746 721.727,1050.714 C721.644,1050.498 721.561,1050.294 721.478,1050.081 L721.644,1050.186 L750.422,914.024 L627.000,914.000 L614.000,976.000 L676.000,976.000 L667.655,1016.045 L667.973,1016.246 C650.944,1079.910 567.355,1081.667 532.000,1079.667 C408.971,1052.667 445.333,892.666 454.333,858.333 C469.833,808.667 490.065,774.716 502.278,754.780 C536.732,699.663 598.210,663.000 668.000,663.000 C737.821,663.000 794.737,700.362 833.516,754.852 C841.823,768.676 881.457,819.929 896.644,905.727 C903.911,941.138 905.066,985.628 897.209,1034.000 L897.049,1034.000 L833.270,1383.000 L1117.006,1383.000 L1127.116,1327.345 L911.598,1327.345 L946.649,1135.004 L1111.795,1135.004 L1121.563,1080.057 L956.693,1080.057 L965.138,1034.000 L964.726,1034.000 C971.796,986.680 977.833,914.755 954.696,856.951 C998.912,886.594 1075.175,908.189 1188.100,914.500 L1198.000,859.000 C1198.000,859.000 1078.353,854.884 1009.128,818.948 C924.636,773.403 918.063,732.928 839.274,669.518 C793.285,630.809 731.756,608.000 668.000,608.000 C566.776,608.000 473.603,663.826 424.951,753.675 C419.305,763.834 392.417,811.986 380.500,858.000 C344.000,991.738 393.929,1135.000 532.000,1135.000 ZM3122.000,539.000 C3090.000,511.000 2972.001,453.000 2846.000,423.000 C2831.409,421.116 2807.685,402.673 2788.025,390.616 C2625.417,290.896 2432.999,115.000 2040.000,115.000 C1554.000,95.000 1206.000,367.000 1132.000,391.000 C555.555,413.606 272.000,539.000 228.000,583.000 C184.000,627.000 177.000,876.000 177.000,876.000 C177.000,876.000 246.333,641.666 270.333,619.666 C293.983,597.988 515.565,460.761 1113.834,445.276 C1212.702,450.996 1364.933,517.350 1563.000,535.000 C1736.558,550.465 1910.853,510.565 2003.431,499.022 L2014.890,442.357 C1909.640,452.848 1686.836,494.259 1566.000,482.000 C1473.857,472.652 1318.427,432.993 1225.290,407.664 C1378.290,329.042 1688.034,155.588 2021.000,171.500 C2405.367,171.500 2573.824,338.397 2719.396,428.562 C2633.276,438.279 2495.712,467.327 2430.031,467.327 C2371.192,467.327 2267.650,456.566 2179.650,448.550 L2168.753,503.639 C2251.685,510.264 2352.487,518.797 2434.021,518.797 C2564.581,518.797 2725.841,463.686 2820.563,476.198 C2825.679,477.631 2830.820,478.908 2836.000,480.000 C2942.524,509.000 3020.000,541.000 3078.000,569.000 C3136.000,597.000 3167.501,889.500 3167.501,889.500 C3167.501,889.500 3154.000,567.000 3122.000,539.000 ZM1647.732,914.007 C1687.011,914.007 1712.943,918.559 1725.530,927.654 C1738.117,936.755 1744.415,950.403 1744.415,968.598 C1744.415,989.635 1738.514,1010.606 1726.718,1031.521 C1714.916,1052.436 1698.914,1068.894 1679.000,1080.000 C1658.273,1080.000 1574.000,1080.000 1574.000,1080.000 L1604.433,914.007 L1647.732,914.007 Z" class="cls-1"/>
</svg>
