<?xml version="1.0" encoding="UTF-8"?>
<svg width="200px" height="102px" viewBox="0 0 200 102" xmlns="http://www.w3.org/2000/svg" xmlns:xlink="http://www.w3.org/1999/xlink" version="1.1">
 <!-- Generated by Pixelmator Pro 2.0.8 -->
 <path id="path337" d="M64.121 12.188 C66.187 11.789 67.553 11.8 68.039 12.317 68.344 12.638 68.429 13.188 68.033 13.88 67.819 14.245 67.593 14.565 67.175 15.06 49.622 35.643 36.253 66.026 32.453 74.792 32.165 75.404 31.877 76.006 31.651 76.399 31.307 77.017 30.832 77.517 29.991 77.579 29.528 77.596 28.885 77.495 27.914 76.916 16.26 69.757 9.35 60.862 9.35 51.191 9.35 33.732 31.894 18.746 64.121 12.188 M82.109 25.315 C83.757 21.505 86.614 13.34 93.158 10.103 95.145 9.114 97.59 8.654 99.78 8.586 L100.78 8.586 C119.095 8.586 136.134 11.115 150.424 15.442 150.537 15.487 150.864 15.616 150.96 15.644 152.287 16.088 152.953 16.689 152.953 17.431 152.953 18.094 152.615 18.577 152.152 19.044 151.937 19.252 151.644 19.504 151.243 19.842 147.951 22.584 138.02 29.726 119.321 36.84 112.76 39.335 104.551 42.442 95.975 44.257 90.933 45.319 72.245 48.151 82.109 25.315 M169.338 25.966 C169.677 25.348 170.157 24.837 170.992 24.775 171.472 24.758 172.093 24.871 173.07 25.45 184.712 32.597 191.639 41.509 191.639 51.18 191.639 68.633 169.089 83.614 136.868 90.166 134.791 90.565 133.436 90.565 132.944 90.048 132.639 89.705 132.555 89.166 132.956 88.48 133.159 88.121 133.39 87.795 133.808 87.3 151.361 66.711 164.742 36.328 168.536 27.568 168.818 26.95 169.106 26.36 169.338 25.966 M119.18 76.967 C117.525 80.782 114.68 88.941 108.119 92.189 106.155 93.155 103.699 93.639 101.491 93.689 101.011 93.717 100.661 93.706 100.514 93.706 82.199 93.706 65.154 91.178 50.858 86.851 50.751 86.811 50.435 86.682 50.333 86.637 49.001 86.199 48.329 85.609 48.329 84.862 48.329 84.204 48.674 83.71 49.153 83.254 49.345 83.047 49.65 82.788 50.051 82.468 53.337 79.714 63.268 72.561 81.967 65.447 88.534 62.952 96.743 59.839 105.319 58.03 110.355 56.973 129.043 54.147 119.18 76.967 M100.497 101.781 C155.319 101.781 199.752 79.13 199.752 51.208 199.752 23.241 155.319 0.618 100.497 0.618 45.687 0.618 1.242 23.241 1.242 51.208 1.242 79.13 45.687 101.781 100.497 101.781" fill="#163d7d" fill-opacity="1" stroke="none"/>
</svg>
