<?xml version="1.0" encoding="UTF-8"?>
<svg width="185px" height="200px" viewBox="0 0 185 200" xmlns="http://www.w3.org/2000/svg" xmlns:xlink="http://www.w3.org/1999/xlink" version="1.1">
 <!-- Generated by Pixelmator Pro 2.0.8 -->
 <g id="•-AP/1.Atoms/6.Logo/desktop/NBi21-white">
  <path id="Combined-Shape" d="M92.501 9.434 C119.197 9.434 146.907 11.712 175.032 16.564 175.452 27.833 175.929 45.252 175.128 60.033 173.336 92.989 166.079 118.569 152.283 140.535 138.53 162.436 117.234 181.268 92.501 192.453 67.769 181.268 46.471 162.436 32.718 140.535 18.923 118.569 11.665 92.989 9.874 60.033 9.07 45.252 9.548 27.833 9.968 16.564 38.094 11.712 65.805 9.434 92.501 9.434 Z M92.501 12.609 C66.183 12.609 39.464 14.845 13.047 19.26 12.467 35.978 12.467 49.28 13.043 59.862 14.802 92.256 21.908 117.355 35.405 138.846 48.9 160.335 69.136 178.086 92.501 188.961 115.865 178.086 136.103 160.335 149.598 138.846 163.094 117.355 170.199 92.256 171.959 59.862 172.536 49.28 172.536 35.978 171.956 19.26 145.538 14.845 118.817 12.609 92.501 12.609 Z M92.271 108.845 C92.271 108.845 92.791 111.929 92.949 112.824 93.037 113.331 93.056 113.467 92.928 113.964 92.513 115.564 90.594 123.994 89.058 132.625 L88.819 133.988 C88.192 137.623 87.65 141.231 87.334 144.318 87.155 146.072 87.213 146.492 87.677 148.049 88.989 152.446 93.843 163.936 94.775 166.031 94.879 166.263 94.941 166.506 94.971 166.757 L95.321 169.466 C93.766 167.117 85.315 151.578 81.996 142.973 81.604 141.959 81.529 141.46 81.962 139.596 84.27 129.71 90.516 112.911 92.271 108.845 Z M79.947 84.963 C79.947 84.963 80.597 87.067 81.223 89.352 L81.442 90.163 C81.837 91.652 82.19 93.122 82.318 94.052 82.44 94.947 82.419 95.188 82.101 96.046 81.33 98.099 79.91 101.402 78.395 104.779 L77.742 106.227 C75.883 110.324 74.001 114.282 73.088 115.995 72.638 116.839 72.214 117.39 71.367 118.251 69.433 120.22 65.731 123.941 63.439 126.023 62.607 126.78 62.383 127.427 62.214 128.406 61.941 129.98 61.669 132.665 61.594 134.051 61.528 135.27 61.726 135.841 62.406 137.049 66.445 144.256 79.928 160.837 83.77 164.319 84.048 164.571 84.252 164.741 84.839 165.131 85.404 165.507 87.245 166.702 87.245 166.702 87.319 166.753 87.381 166.821 87.428 166.898 L88.095 168.072 C88.095 168.072 88.032 168.041 87.92 167.985 L87.632 167.842 C87.401 167.727 87.095 167.574 86.743 167.399 L85.887 166.97 C84.575 166.311 83.01 165.519 82.188 165.076 81.849 164.893 81.531 164.678 81.235 164.432 76.737 160.693 62.952 144.556 58.898 137.818 57.887 136.135 57.783 135.591 57.919 133.999 58.173 131.035 58.566 127.308 58.911 125.674 59.12 124.689 59.337 124.11 60.092 123.24 62.629 120.318 65.724 116.461 68.74 112.503 L69.8 111.103 C74.37 105.031 78.58 98.953 80.152 95.857 80.512 95.153 80.542 94.908 80.55 94.243 80.57 92.313 79.955 88.556 79.793 87.606 79.768 87.458 79.761 87.307 79.774 87.156 Z M117.569 81.342 L118.735 81.849 C119.079 81.997 119.394 82.216 119.654 82.487 126.799 89.949 132.514 97.685 133.659 99.724 133.879 100.116 134.03 100.508 134.084 100.956 135.369 111.837 134.265 123.364 131.642 133.392 131.405 134.296 131.139 134.76 130.27 135.414 127.469 137.521 123.289 140.881 119.132 144.307 L117.822 145.39 C112.814 149.538 108.057 153.599 106.038 155.467 105.531 155.938 105.089 156.469 104.727 157.059 103.781 158.598 102.335 161.248 101.626 162.563 L101.427 162.931 C101.285 163.196 101.203 163.35 101.203 163.35 100.261 161.295 98.209 156.279 97.504 154.252 97.275 153.59 97.233 153.244 97.476 152.358 98.625 148.154 104.053 135.934 105.11 133.724 L105.112 134.628 C105.112 134.76 105.091 134.89 105.049 135.014 104.573 136.459 101.654 146.091 101.061 150.269 100.93 151.197 100.941 151.448 101.061 152.36 101.321 154.31 102.487 157.886 102.487 157.886 102.487 157.886 103.178 156.443 103.822 155.467 104.138 154.988 104.328 154.758 104.844 154.246 107.454 151.664 111.906 147.672 116.544 143.658 L118.185 142.242 C121.748 139.183 125.304 136.207 128.114 133.933 128.844 133.341 129.117 132.945 129.279 131.822 130.085 126.291 130.318 116.361 129.833 109.135 129.74 107.771 129.298 106.452 128.53 105.32 126.767 102.714 124.66 100.248 121.465 97.08 121.009 96.626 120.699 96.046 120.582 95.413 119.65 90.439 117.569 81.342 117.569 81.342 Z M57.141 92.85 C57.586 92.707 58.058 92.69 58.51 92.799 60.548 93.289 64.86 94.346 68.119 95.181 68.576 95.298 69.147 95.726 69.39 96.131 L70.1 97.312 C70.348 97.727 70.365 98.235 70.145 98.665 69.552 99.814 68.707 101.37 67.814 102.975 L67.138 104.181 C65.894 106.39 64.655 108.521 63.952 109.642 63.489 110.383 63.231 110.71 62.406 111.002 59.199 112.131 55.217 113.48 52.85 114.247 52.366 114.403 52.202 114.697 52.297 115.234 52.466 116.212 53.012 119.532 53.221 120.501 53.298 120.859 53.585 121.143 54.116 121.041 55.515 120.776 59.239 119.864 59.239 119.864 59.239 119.864 58.141 120.879 57.484 121.478 57.364 121.591 57.224 121.674 57.068 121.725 56.053 122.064 53.575 122.76 52.803 122.929 52.201 123.059 51.816 122.822 51.662 122.14 51.662 122.14 50.606 117.64 50.223 116.11 50.163 115.877 50.103 115.675 50.03 115.445 49.743 114.56 49.056 112.819 48.668 111.907 48.623 111.801 48.6 111.688 48.602 111.571 48.614 110.529 48.806 108.204 48.806 108.204 48.806 108.204 51.086 110.343 52.189 111.115 52.438 111.291 52.587 111.326 52.892 111.249 54.407 110.859 57.893 109.706 59.806 108.99 60.243 108.826 60.625 108.551 60.922 108.191 62.901 105.8 65.383 102.081 66.816 99.275 67.014 98.889 67.051 98.446 66.927 98.032 L66.618 97.014 C66.528 96.717 66.213 96.381 65.923 96.27 62.551 94.987 59.892 94.034 56.769 92.969 Z M123.836 63.891 C124.578 63.618 125.392 63.637 126.12 63.944 131.773 66.318 141.278 71.903 146.562 75.837 147.072 76.217 147.275 76.479 147.409 77.094 148.65 82.739 149.121 91.464 148.339 98.811 148.283 99.338 148.177 99.655 147.902 100.218 144.554 107.067 140.787 113.513 136.821 118.485 L136.829 118.404 C136.881 117.874 137.165 114.889 137.181 113.273 137.183 113.091 137.267 112.923 137.412 112.812 138.149 112.239 139.16 111.425 139.732 110.929 140.011 110.688 140.165 110.507 140.31 110.274 141.926 107.662 144.814 102.194 145.978 98.905 146.262 98.102 146.375 97.252 146.306 96.403 145.933 91.818 145.213 85.467 144.142 81.322 143.959 80.615 143.492 80.018 142.843 79.684 141.918 79.209 140.105 78.382 135.976 76.726 135.403 76.496 134.869 76.178 134.398 75.782 131.69 73.506 127.457 70.094 124.823 68.131 124.053 67.556 123.07 67.347 122.132 67.56 120.214 67.995 117.772 68.602 116.397 68.975 115.93 69.101 115.745 69.112 115.263 69.056 115.012 69.027 114.688 68.995 114.347 68.964 L113.831 68.918 C113.231 68.867 112.667 68.824 112.447 68.807 L112.349 68.799 C116.828 66.695 121.138 64.878 123.836 63.891 Z M64.072 100.945 C62.671 103.251 60.997 105.7 59.731 107.23 59.566 107.43 59.345 107.584 59.095 107.679 57.711 108.197 55.404 108.977 53.706 109.495 Z M45.557 97.917 L44.73 103.624 41.919 100.323 C42.431 99.213 43.928 98.165 45.557 97.917 Z M60.699 65.605 L59.931 66.551 C59.887 66.593 59.846 66.632 59.803 66.676 59.127 67.175 56.282 69.355 55.512 69.965 55.293 70.139 55.206 70.289 55.156 70.563 54.982 71.527 54.694 73.361 54.61 74.376 54.585 74.674 54.457 74.821 54.154 74.943 52.834 75.48 51.269 76.046 50.004 76.552 49.733 76.66 49.657 76.701 49.497 76.824 49.371 76.922 47.69 78.423 47.69 78.423 47.69 78.423 51.345 77.523 52.685 77.219 53.005 77.148 53.143 77.167 53.438 77.306 53.715 77.434 54.177 77.617 54.419 77.706 54.792 77.843 54.99 77.837 55.402 77.747 56.912 77.41 59.453 76.807 60.804 76.454 61.507 76.272 61.891 76.081 62.486 75.665 63.134 75.215 64.774 73.984 64.774 73.984 64.774 73.984 64.744 74.201 64.721 74.322 64.704 74.425 64.666 74.484 64.599 74.565 64.265 74.966 63.682 75.62 63.392 75.919 62.727 76.607 62.33 76.852 61.496 77.201 57.654 78.802 51.09 81.289 46.166 82.994 45.845 83.107 45.705 83.2 45.466 83.445 45.206 83.709 44.86 84.093 44.86 84.093 44.86 84.093 48.874 84.385 50.1 84.526 50.497 84.571 50.782 84.701 51.085 84.963 52.092 85.83 55.427 89.265 56.425 90.458 56.425 90.458 46.944 92.035 42.551 93.126 42.009 93.259 41.738 93.604 41.615 94.039 41.252 95.317 40.395 99.424 40.395 99.424 40.395 99.424 40.09 99.326 39.665 99.081 39.373 98.914 39.224 98.774 38.904 98.435 37.865 97.337 36.157 95.234 35.336 94.015 35.095 93.655 34.993 93.197 35.294 92.83 36.185 91.733 37.974 89.732 38.96 88.703 39.066 88.592 39.2 88.398 39.341 88.119 39.673 87.46 40.11 85.788 40.263 85.185 L40.312 84.99 40.318 84.963 C40.318 84.963 40.309 84.969 40.292 84.98 L40.111 85.093 C39.867 85.247 39.473 85.495 39.303 85.602 39.049 85.764 38.979 85.834 38.874 86.056 38.714 86.392 38.433 86.921 38.22 87.288 38.151 87.409 37.964 87.596 37.865 87.673 36.605 88.636 35.213 89.67 34.223 90.367 34.155 90.414 34.069 90.394 34.01 90.337 33.884 90.211 33.355 89.61 33.261 89.468 33.182 89.35 33.146 89.239 33.146 89.095 33.144 88.845 33.169 88.404 33.193 88.076 33.223 87.688 33.334 87.503 33.807 87.013 34.336 86.465 34.912 85.888 35.518 85.297 37.004 84.046 40.755 81.001 47.453 76.219 47.579 76.128 47.694 76.023 47.786 75.897 48.49 74.947 50.488 72.354 50.981 71.738 51.051 71.652 51.128 71.571 51.217 71.501 52.005 70.877 52.395 70.608 53.196 70.103 55.061 68.927 58.675 66.783 60.699 65.605 Z M101.522 63.485 C101.802 63.436 102.09 63.475 102.348 63.598 L104.305 64.534 C104.497 64.627 104.638 64.802 104.689 65.013 104.954 66.132 105.28 67.615 105.498 68.875 105.587 69.399 105.489 69.934 105.223 70.396 104.414 71.803 102.751 74.336 101.821 75.696 101.614 76.001 101.589 76.371 101.653 76.734 102.075 79.067 103.834 87.212 103.834 87.212 L102.727 86.204 C102.506 86.001 102.361 85.786 102.267 85.505 101.48 83.201 100.008 78.387 99.33 76.045 99.221 75.658 99.303 75.246 99.558 74.939 100.712 73.537 102.393 71.295 103.376 69.874 103.651 69.475 103.742 69.034 103.58 68.704 103.354 68.24 102.973 67.536 102.608 66.897 102.51 66.72 102.346 66.588 102.152 66.524 L100.825 66.098 C100.593 66.025 100.345 66.028 100.115 66.111 97.223 67.161 93.333 68.674 90.953 69.661 90.604 69.806 90.461 69.817 90.039 69.753 89.35 69.652 87.343 69.292 86.358 69.107 86.181 69.073 86.093 68.873 86.183 68.717 L87.351 66.694 C87.509 66.42 87.77 66.226 88.079 66.157 91.834 65.301 96.799 64.318 101.522 63.485 Z M59.974 72.778 C60.153 72.763 60.322 72.863 60.392 73.027 60.627 73.575 60.563 74.187 60.336 74.711 60.247 74.924 59.974 75.131 59.75 75.18 L57.876 75.597 C57.764 75.621 57.66 75.531 57.667 75.416 L57.843 73.215 C57.856 73.066 57.973 72.947 58.121 72.936 Z M81.292 58.637 C81.509 58.635 81.644 58.869 81.537 59.056 L76.969 66.926 C76.715 67.389 76.289 67.734 75.784 67.887 L67.219 70.568 C66.225 70.869 65.385 71.031 64.349 71.111 62.449 71.254 56.806 71.431 56.806 71.431 L56.931 71.163 C56.989 71.037 57.092 70.937 57.22 70.883 L59.89 69.748 C60.09 69.664 60.265 69.534 60.399 69.366 L64.523 64.286 C64.743 64.015 65.031 63.755 65.338 63.593 68.062 62.159 72.907 60.005 76.3 58.871 76.62 58.764 77.052 58.696 77.389 58.692 Z M76.713 49.498 C86.165 48.667 98.956 48.441 111.174 49.366 111.869 49.419 112.545 49.583 113.187 49.854 117.19 51.539 124.293 55.224 132.19 59.744 132.538 59.944 132.866 60.177 133.167 60.443 135.259 62.288 140.559 67.714 140.559 67.714 L138.906 67.386 C138.675 67.341 138.458 67.251 138.262 67.119 134.918 64.871 130.036 61.945 125.944 59.882 125.458 59.639 124.933 59.482 124.392 59.426 122.402 59.213 119.712 59.026 117.951 58.955 117.083 58.919 116.492 58.774 115.642 58.342 114.019 57.519 110.088 55.735 108.13 54.987 107.292 54.666 106.864 54.591 106.043 54.604 102.678 54.653 95.013 54.898 91.098 55.141 90.963 55.149 90.833 55.143 90.701 55.122 L88.835 54.83 C94.126 53.918 107.205 52.752 112.618 52.467 L110.415 51.731 C109.99 51.589 109.547 51.514 109.097 51.503 107.922 51.475 105.309 51.423 101.917 51.418 L100.758 51.418 C95.619 51.428 89.009 51.554 82.911 52.013 82.378 52.053 81.859 52.181 81.369 52.398 78.906 53.48 72.901 56.739 66.877 60.085 L65.54 60.83 C63.983 61.698 62.442 62.561 60.979 63.384 60.979 63.384 61.73 62.418 61.875 62.229 62.003 62.065 62.043 62.035 62.216 61.922 62.458 61.763 63.284 61.219 64.117 60.666 L64.734 60.256 C65.235 59.923 65.681 59.624 65.933 59.45 66.057 59.365 66.136 59.305 66.292 59.188 68.106 57.82 70.968 55.409 72.674 53.915 73.06 53.577 73.387 53.185 73.657 52.748 74.208 51.855 74.811 50.887 75.182 50.35 75.498 49.884 76.039 49.558 76.713 49.498 Z M36.46 27.766 C38.795 27.525 40.1 28.433 40.1 30.798 L40.1 32.105 C40.1 34.525 38.795 35.503 36.46 35.746 33.231 36.083 30.002 36.448 26.778 36.844 L26.778 40.418 C26.102 40.501 25.424 40.584 24.748 40.671 L24.748 29.119 C28.648 28.625 32.551 28.175 36.46 27.766 Z M144.826 27.392 C149.974 27.893 155.118 28.469 160.253 29.118 L160.253 30.981 C158.033 30.7 155.809 30.433 153.584 30.18 L153.584 39.87 C152.908 39.793 152.232 39.718 151.552 39.642 L151.552 29.952 C149.313 29.705 147.069 29.474 144.826 29.255 Z M59.307 25.873 L59.307 27.735 C55.072 27.997 50.839 28.308 46.61 28.668 L46.61 31.513 C50.372 31.19 54.136 30.91 57.902 30.669 L57.902 32.532 C54.136 32.773 50.372 33.054 46.61 33.374 L46.61 36.496 C50.839 36.135 55.072 35.824 59.307 35.564 L59.307 37.425 C54.409 37.727 49.515 38.096 44.623 38.531 L44.623 26.977 C49.515 26.542 54.409 26.175 59.307 25.873 Z M125.17 29.038 C125.17 26.447 126.454 25.914 129.348 26.11 131.89 26.285 134.429 26.475 136.969 26.686 139.482 26.894 141.141 27.6 141.141 30.244 L141.141 35.403 C141.141 37.997 139.708 38.464 136.969 38.238 134.429 38.029 131.89 37.837 129.348 37.664 126.58 37.477 125.17 36.942 125.17 34.197 Z M105.476 25.008 C110.379 25.125 115.281 25.31 120.182 25.562 L120.182 27.424 C115.945 27.207 111.707 27.039 107.467 26.923 L107.467 29.766 C111.238 29.871 115.008 30.015 118.775 30.197 L118.775 32.061 C115.008 31.878 111.238 31.733 107.467 31.629 L107.467 34.749 C111.707 34.866 115.945 35.034 120.182 35.253 L120.182 37.114 C115.281 36.864 110.379 36.679 105.476 36.56 Z M79.963 24.998 L79.963 33.354 C79.963 35.998 78.575 36.578 75.779 36.665 73.344 36.74 70.909 36.831 68.475 36.94 65.88 37.057 64.295 36.563 64.295 33.946 L64.295 25.59 66.283 25.488 66.283 34.197 C66.283 34.726 66.737 35.158 67.339 35.129 70.531 34.98 73.721 34.86 76.912 34.768 77.519 34.751 77.922 34.287 77.922 33.758 L77.922 25.049 C78.601 25.03 79.281 25.013 79.963 24.998 Z M128.217 27.898 C127.612 27.856 127.159 28.28 127.159 28.885 L127.159 34.598 C127.159 35.127 127.612 35.683 128.217 35.725 131.514 35.943 134.807 36.192 138.1 36.471 138.628 36.516 139.155 36.032 139.155 35.504 L139.155 29.79 C139.155 29.187 138.628 28.687 138.1 28.642 134.807 28.363 131.514 28.115 128.217 27.898 Z M88.755 24.865 C92.41 24.839 96.065 24.852 99.718 24.901 L99.718 26.763 C95.813 26.712 91.906 26.701 87.998 26.733 87.469 26.738 86.94 27.196 86.94 27.726 L86.94 33.514 C86.94 34.043 87.469 34.567 87.998 34.561 91.503 34.531 95.005 34.537 98.509 34.577 L98.509 31.454 C96.475 31.432 94.442 31.421 92.41 31.422 L92.41 29.559 C95.107 29.559 97.803 29.58 100.499 29.619 L100.499 36.464 C96.711 36.408 92.922 36.393 89.134 36.415 86.36 36.434 84.95 35.956 84.95 33.261 L84.95 28.227 C84.95 25.711 86.21 24.884 88.755 24.866 Z M37.22 29.564 L37.063 29.567 C33.632 29.922 30.203 30.308 26.778 30.728 L26.778 34.981 C30.203 34.562 33.632 34.174 37.063 33.822 37.588 33.765 38.115 33.285 38.115 32.782 L38.115 30.442 C38.115 29.912 37.588 29.513 37.063 29.567 Z" fill="#000000" fill-opacity="1" stroke="none"/>
 </g>
</svg>
