<?xml version="1.0" encoding="UTF-8"?>
<svg width="153px" height="200px" viewBox="0 0 153 200" xmlns="http://www.w3.org/2000/svg" xmlns:xlink="http://www.w3.org/1999/xlink" version="1.1">
 <!-- Generated by Pixelmator Pro 2.0.8 -->
 <g id="group">
  <g id="group-1">
   <path id="Pfad" d="M68.927 0.087 C66.317 4.947 31.14 70.543 15.987 98.726 15.462 99.701 15.502 100.406 16.015 101.36 30.861 128.976 60.948 184.996 61.259 185.519 61.57 185 91.658 128.976 106.504 101.364 107.017 100.41 107.061 99.705 106.532 98.731 98.036 82.982 89.598 67.201 81.102 51.452 80.557 50.446 80.52 49.693 81.086 48.678 83.421 44.482 85.659 40.234 88.026 35.828 88.361 36.396 110.874 78.287 121.915 98.811 122.379 99.673 122.42 100.317 121.943 101.207 104.472 133.707 87.028 166.223 69.605 198.751 69.141 199.621 68.668 200.016 67.61 200 63.295 199.927 58.977 199.947 54.663 199.987 53.863 199.995 53.439 199.742 53.063 199.033 35.551 166.344 18.023 133.663 0.475 100.994 0.111 100.313 0.079 99.806 0.454 99.101 18.007 66.424 35.531 33.743 53.083 1.074 53.305 0.663 53.826 0.135 54.214 0.131 59.029 0.063 63.845 0.087 68.927 0.087 Z" fill="#000000" fill-opacity="1" stroke="none"/>
   <path id="Pfad-1" d="M88.882 20.1 C80.852 35.019 58.714 76.237 46.648 98.686 46.135 99.645 46.098 100.349 46.624 101.32 55.119 117.072 63.558 132.849 72.053 148.598 72.599 149.609 72.627 150.358 72.061 151.372 69.726 155.568 67.488 159.816 65.117 164.226 64.802 163.694 42.293 121.8 31.228 101.235 30.764 100.373 30.728 99.729 31.204 98.839 48.672 66.343 66.115 33.827 83.538 1.299 84.007 0.425 84.483 0.039 85.534 0.055 89.848 0.127 94.166 0.107 98.481 0.067 99.285 0.059 99.701 0.321 100.08 1.025 117.596 33.714 135.125 66.396 152.673 99.065 153.04 99.745 153.065 100.257 152.689 100.957 135.141 133.626 117.617 166.308 100.064 198.977 99.842 199.387 99.321 199.911 98.933 199.915 94.118 199.979 89.303 199.955 84.257 199.955 84.588 199.311 119.782 133.655 137.165 101.316 137.69 100.341 137.649 99.637 137.132 98.682 122.286 71.067 92.199 15.046 91.888 14.527 91.831 14.624 90.729 16.665 88.882 20.1" fill="#000000" fill-opacity="1" stroke="none"/>
  </g>
 </g>
</svg>
