<?xml version="1.0" encoding="UTF-8"?>
<svg width="200px" height="200px" viewBox="0 0 200 200" xmlns="http://www.w3.org/2000/svg" xmlns:xlink="http://www.w3.org/1999/xlink" version="1.1">
 <!-- Generated by Pixelmator Pro 2.0.8 -->
 <path id="Pfad" d="M100 188.214 C51.786 188.214 12.143 148.214 12.143 100 12.143 90 13.929 80.357 17.143 71.071 L68.571 171.071 C69.286 172.5 70 173.571 71.786 173.571 73.571 173.571 74.286 172.5 75 171.071 L98.929 117.857 C99.286 117.143 99.643 116.786 100 116.786 100.714 116.786 100.714 117.5 101.071 117.857 L125.357 171.071 C126.071 172.5 126.786 173.571 128.571 173.571 130.357 173.571 131.071 172.5 131.786 171.071 L183.214 71.071 C186.429 80 188.214 89.643 188.214 100 187.857 148.214 148.214 188.214 100 188.214 Z M100 77.143 C99.286 77.143 99.286 76.429 98.929 76.071 L71.429 16.786 C80.357 13.571 90 11.786 100 11.786 110 11.786 119.643 13.571 128.571 16.786 L101.071 76.071 C100.714 76.429 100.714 77.143 100 77.143 Z M71.071 141.429 C70.357 141.429 70.357 140.714 70 140.357 L25 53.929 C32.857 41.071 44.286 30.357 57.5 22.857 L89.286 91.429 C90 92.857 90.714 93.214 91.786 93.214 L108.214 93.214 C109.286 93.214 110 92.857 110.714 91.429 L142.143 22.857 C155.357 30.357 166.786 41.071 174.643 53.929 L130 140.357 C129.643 141.071 129.286 141.429 128.929 141.429 128.214 141.429 128.214 140.714 127.857 140.357 L110.714 102.5 C110 101.071 109.286 100.714 108.214 100.714 L91.786 100.714 C90.714 100.714 90 101.071 89.286 102.5 L72.143 140.357 C71.786 140.714 71.786 141.429 71.071 141.429 Z M100 200 C155.357 200 200 155.357 200 100 200 44.643 155.357 0 100 0 44.643 0 -0 44.643 -0 100 -0 155.357 44.643 200 100 200 Z" fill="#001e50" fill-opacity="1" stroke="none"/>
</svg>
